<svg width="240" height="240" viewBox="0 0 240 240" fill="none" xmlns="http://www.w3.org/2000/svg">
<mask id="mask0" style="mask-type:alpha" maskUnits="userSpaceOnUse" x="31" y="31" width="178" height="178">
<circle cx="119.875" cy="119.875" r="88.8752" fill="#F8F8F8"/>
</mask>
<g mask="url(#mask0)">
<circle cx="119.875" cy="119.875" r="87.3752" stroke="#E9E9E9" stroke-width="3" stroke-dasharray="10 10"/>
<path fill-rule="evenodd" clip-rule="evenodd" d="M136.116 133.809C142.942 124.425 142.081 111.209 133.578 102.798C124.199 93.521 109.076 93.6031 99.7983 102.982C90.5208 112.36 90.6029 127.484 99.9816 136.762C108.484 145.173 121.709 145.891 131.018 138.963L142.705 150.523C144.128 151.931 146.423 151.919 147.831 150.495C149.239 149.072 149.226 146.777 147.803 145.369L136.116 133.809ZM128.757 107.672C135.444 114.287 135.502 125.07 128.888 131.757C122.273 138.444 111.49 138.502 104.803 131.888C98.1159 125.273 98.0573 114.49 104.672 107.803C111.287 101.116 122.07 101.057 128.757 107.672Z" fill="#E9E9E9"/>
</g>
<g filter="url(#filter0_d)">
<rect x="152.413" y="42.834" width="51.9278" height="51.9257" rx="25.9629" transform="rotate(-11.0087 152.413 42.834)" fill="#FFD400"/>
</g>
<path fill-rule="evenodd" clip-rule="evenodd" d="M177.168 56.7757C179.231 56.3743 181.239 57.4616 182.081 59.2892L192.792 57.2055C193.407 57.0857 194.003 57.4876 194.123 58.103C194.243 58.7184 193.841 59.3144 193.225 59.4341L182.478 61.5249C182.321 63.4735 180.888 65.1592 178.875 65.5508C176.452 66.0222 174.105 64.44 173.634 62.0168C173.163 59.5936 174.745 57.2471 177.168 56.7757ZM178.512 63.6864C179.906 63.4153 180.816 62.0658 180.545 60.6723C180.274 59.2787 178.924 58.3688 177.531 58.6399C176.137 58.911 175.227 60.2605 175.498 61.654C175.769 63.0476 177.119 63.9575 178.512 63.6864ZM173.556 60.9476C173.539 61.2984 173.564 61.6567 173.634 62.0167C173.714 62.4269 173.847 62.813 174.026 63.1691L172.053 63.5528C171.438 63.6725 170.842 63.2707 170.722 62.6553C170.603 62.0399 171.005 61.4439 171.62 61.3242L173.556 60.9476ZM192.891 67.3777C192.42 64.9545 190.073 63.3723 187.65 63.8437C185.537 64.2547 184.064 66.0912 184.034 68.1611L173.354 70.2386C172.739 70.3584 172.337 70.9543 172.457 71.5697C172.576 72.1851 173.172 72.587 173.788 72.4673L184.577 70.3684C185.483 72.0358 187.395 73.0005 189.357 72.6188C191.319 72.2371 192.73 70.626 192.946 68.7403L194.96 68.3485C195.575 68.2288 195.977 67.6329 195.857 67.0174C195.737 66.402 195.141 66.0002 194.526 66.1199L192.622 66.4904C192.74 66.7706 192.831 67.0672 192.891 67.3775C192.938 67.6153 192.964 67.8523 192.972 68.0868C192.964 67.8523 192.938 67.6154 192.891 67.3777ZM188.995 70.7544C190.388 70.4833 191.298 69.1339 191.027 67.7403C190.756 66.3468 189.407 65.4368 188.013 65.7079C186.619 65.979 185.709 67.3285 185.981 68.722C186.252 70.1156 187.601 71.0255 188.995 70.7544Z" fill="#1F1F25"/>
<defs>
<filter id="filter0_d" x="125.498" y="29.3931" width="99.9374" height="99.9355" filterUnits="userSpaceOnUse" color-interpolation-filters="sRGB">
<feFlood flood-opacity="0" result="BackgroundImageFix"/>
<feColorMatrix in="SourceAlpha" type="matrix" values="0 0 0 0 0 0 0 0 0 0 0 0 0 0 0 0 0 0 127 0" result="hardAlpha"/>
<feOffset dx="-7.38996" dy="16"/>
<feGaussianBlur stdDeviation="12"/>
<feColorMatrix type="matrix" values="0 0 0 0 0 0 0 0 0 0 0 0 0 0 0 0 0 0 0.12 0"/>
<feBlend mode="normal" in2="BackgroundImageFix" result="effect1_dropShadow"/>
<feBlend mode="normal" in="SourceGraphic" in2="effect1_dropShadow" result="shape"/>
</filter>
</defs>
</svg>
