<svg width="14" height="14" viewBox="0 0 14 14" fill="none" xmlns="http://www.w3.org/2000/svg">
<path d="M7 0C3.14007 0 0 3.14007 0 7C0 10.8599 3.14007 14 7 14C10.8599 14 14 10.8599 14 7C14 3.14007 10.8599 0 7 0ZM7 12.8333C3.7835 12.8333 1.16668 10.2165 1.16668 7C1.16668 3.7835 3.7835 1.16668 7 1.16668C10.2165 1.16668 12.8333 3.7835 12.8333 7C12.8333 10.2165 10.2165 12.8333 7 12.8333Z" fill="#F2994A"/>
<path d="M6.85425 9.43252C6.47332 9.43894 6.1665 9.74577 6.16007 10.1267C6.1595 10.1384 6.1595 10.1506 6.16007 10.1623C6.1735 10.5455 6.49432 10.8453 6.87757 10.8325H6.85425C7.23925 10.8261 7.54843 10.5123 7.54843 10.1267C7.53908 9.74694 7.234 9.44184 6.85425 9.43252Z" fill="#F2994A"/>
<path d="M6.98841 3.19077C6.16591 3.16627 5.37141 3.4906 4.8009 4.08327C4.73498 4.1661 4.69998 4.26935 4.70173 4.37495C4.70465 4.63337 4.90998 4.84395 5.16841 4.85327C5.28858 4.85384 5.40466 4.81009 5.49508 4.73077C5.85676 4.3557 6.35666 4.1451 6.87759 4.14745C7.66509 4.14745 8.04426 4.57327 8.04426 5.07495C8.04426 6.14827 6.13676 6.28244 6.13676 7.67662C6.13676 8.01494 6.34676 8.63911 6.78426 8.63911C6.78776 8.63911 6.79183 8.63911 6.79594 8.63911C7.03101 8.63911 7.22176 8.44836 7.22176 8.21329C7.22176 8.05579 7.11094 7.92161 7.11094 7.76411C7.11094 6.71412 9.16427 6.56829 9.21094 4.9408C9.21091 3.94912 8.37091 3.19077 6.98841 3.19077Z" fill="#F2994A"/>
</svg>
